<?xml version="1.0" encoding="UTF-8"?>
<svg xmlns="http://www.w3.org/2000/svg" xmlns:xlink="http://www.w3.org/1999/xlink" width="1080px" height="1080px" viewBox="0 0 540 540" version="1.1">
<g id="surface1">
<path style=" stroke:none;fill-rule:nonzero;fill:rgb(0%,0%,0%);fill-opacity:1;" d="M 257.320312 473.265625 L 258.96875 456.851562 L 237.363281 454.671875 L 237.75 450.859375 L 259.351562 453.039062 L 261.144531 435.308594 L 265.5625 435.757812 L 261.351562 477.546875 L 232.707031 474.664062 L 233.09375 470.828125 Z M 257.320312 473.265625 "/>
<path style=" stroke:none;fill-rule:nonzero;fill:rgb(0%,0%,0%);fill-opacity:1;" d="M 196.351562 453.195312 L 205.976562 423.132812 L 209.863281 424.375 L 208.101562 429.863281 C 209.757812 428.378906 211.679688 427.429688 213.875 427.019531 C 216.0625 426.601562 218.359375 426.78125 220.757812 427.550781 C 224.683594 428.808594 227.429688 430.894531 229 433.8125 C 230.5625 436.734375 230.664062 440.304688 229.3125 444.53125 L 223.726562 461.96875 L 219.664062 460.664062 L 225.113281 443.625 C 226.128906 440.460938 226.117188 437.8125 225.082031 435.675781 C 224.039062 433.546875 222.078125 432.015625 219.1875 431.09375 C 216.019531 430.070312 213.214844 430.234375 210.769531 431.570312 C 208.328125 432.914062 206.554688 435.292969 205.457031 438.71875 L 200.40625 454.5 Z M 196.351562 453.195312 "/>
<path style=" stroke:none;fill-rule:nonzero;fill:rgb(0%,0%,0%);fill-opacity:1;" d="M 178.367188 458.847656 L 174.546875 456.953125 L 194.359375 417.085938 L 198.179688 418.984375 Z M 178.367188 458.847656 "/>
<path style=" stroke:none;fill-rule:nonzero;fill:rgb(0%,0%,0%);fill-opacity:1;" d="M 162.367188 450.234375 L 158.734375 448.015625 L 181.910156 410.003906 L 185.546875 412.222656 Z M 162.367188 450.234375 "/>
<path style=" stroke:none;fill-rule:nonzero;fill:rgb(0%,0%,0%);fill-opacity:1;" d="M 164.667969 420.507812 L 152.179688 410.964844 L 154.441406 407.996094 L 166.929688 417.539062 Z M 164.667969 420.507812 "/>
<path style=" stroke:none;fill-rule:nonzero;fill:rgb(0%,0%,0%);fill-opacity:1;" d="M 149.988281 383.382812 C 152.128906 385.648438 153.820312 388.164062 155.0625 390.925781 C 156.304688 393.691406 156.867188 396.203125 156.75 398.457031 L 153.070312 399.550781 C 153.128906 397.398438 152.632812 395.085938 151.582031 392.613281 C 150.535156 390.140625 149.089844 387.933594 147.25 385.988281 C 144.660156 383.257812 142.214844 381.691406 139.914062 381.28125 C 137.617188 380.863281 135.671875 381.414062 134.070312 382.925781 C 132.859375 384.070312 132.238281 385.363281 132.21875 386.800781 C 132.195312 388.234375 132.5 389.671875 133.125 391.113281 C 133.75 392.558594 134.734375 394.453125 136.082031 396.800781 C 137.679688 399.648438 138.859375 402.003906 139.613281 403.875 C 140.371094 405.75 140.660156 407.691406 140.476562 409.707031 C 140.289062 411.726562 139.253906 413.632812 137.363281 415.425781 C 135.828125 416.882812 134.046875 417.804688 132.019531 418.195312 C 129.984375 418.585938 127.796875 418.292969 125.445312 417.320312 C 123.09375 416.355469 120.734375 414.625 118.363281 412.125 C 116.710938 410.386719 115.332031 408.453125 114.226562 406.320312 C 113.125 404.195312 112.421875 402.125 112.113281 400.113281 L 115.707031 398.769531 C 116.070312 400.851562 116.726562 402.816406 117.6875 404.664062 C 118.644531 406.519531 119.785156 408.140625 121.101562 409.53125 C 123.632812 412.203125 126.050781 413.722656 128.363281 414.09375 C 130.675781 414.460938 132.644531 413.875 134.269531 412.332031 C 135.492188 411.171875 136.125 409.867188 136.164062 408.425781 C 136.203125 406.988281 135.882812 405.523438 135.21875 404.039062 C 134.550781 402.554688 133.554688 400.648438 132.226562 398.320312 C 130.660156 395.558594 129.488281 393.234375 128.71875 391.34375 C 127.945312 389.453125 127.652344 387.515625 127.832031 385.53125 C 128.015625 383.546875 129.03125 381.671875 130.882812 379.90625 C 132.433594 378.445312 134.234375 377.535156 136.28125 377.164062 C 138.320312 376.789062 140.523438 377.109375 142.882812 378.125 C 145.246094 379.132812 147.613281 380.882812 149.988281 383.382812 Z M 149.988281 383.382812 "/>
<path style=" stroke:none;fill-rule:nonzero;fill:rgb(0%,0%,0%);fill-opacity:1;" d="M 125.285156 354.914062 C 126.324219 355.171875 127.328125 355.683594 128.308594 356.453125 C 129.285156 357.21875 130.136719 358.132812 130.859375 359.195312 C 132.511719 361.648438 133.128906 363.984375 132.703125 366.203125 C 132.273438 368.429688 130.847656 370.359375 128.433594 371.996094 L 112.628906 382.683594 L 115.785156 387.351562 L 112.808594 389.371094 L 109.652344 384.703125 L 103.933594 388.570312 L 101.546875 385.039062 L 107.265625 381.171875 L 101.878906 373.226562 L 104.859375 371.203125 L 110.246094 379.152344 L 125.847656 368.601562 C 127.40625 367.546875 128.324219 366.355469 128.609375 365.027344 C 128.894531 363.703125 128.542969 362.308594 127.558594 360.851562 C 127.066406 360.121094 126.472656 359.496094 125.777344 358.976562 C 125.082031 358.453125 124.355469 358.085938 123.589844 357.871094 Z M 125.285156 354.914062 "/>
<path style=" stroke:none;fill-rule:nonzero;fill:rgb(0%,0%,0%);fill-opacity:1;" d="M 91.109375 353.445312 C 89.375 349.710938 88.972656 346.410156 89.910156 343.546875 C 90.847656 340.679688 93.148438 338.398438 96.816406 336.695312 L 114.554688 328.445312 L 116.273438 332.152344 L 111.816406 334.226562 C 113.707031 334.398438 115.460938 335.140625 117.078125 336.445312 C 118.695312 337.742188 120.042969 339.554688 121.117188 341.871094 C 122.605469 345.058594 123.023438 347.953125 122.378906 350.546875 C 121.726562 353.148438 120.148438 355.023438 117.648438 356.183594 C 115.21875 357.3125 112.851562 357.34375 110.546875 356.277344 C 108.242188 355.210938 106.195312 352.75 104.410156 348.902344 L 100.179688 339.820312 L 98.453125 340.632812 C 95.980469 341.777344 94.421875 343.339844 93.773438 345.320312 C 93.128906 347.296875 93.421875 349.609375 94.648438 352.257812 C 95.492188 354.070312 96.601562 355.667969 97.984375 357.058594 C 99.359375 358.445312 100.847656 359.496094 102.453125 360.203125 L 100.378906 363.296875 C 98.46875 362.414062 96.710938 361.113281 95.097656 359.390625 C 93.480469 357.675781 92.148438 355.695312 91.109375 353.445312 Z M 117.796875 342.683594 C 116.78125 340.511719 115.414062 338.878906 113.691406 337.789062 C 111.96875 336.691406 109.992188 336.199219 107.753906 336.308594 L 103.078125 338.476562 L 107.253906 347.453125 C 109.523438 352.351562 112.367188 354.007812 115.773438 352.421875 C 117.441406 351.652344 118.460938 350.410156 118.835938 348.695312 C 119.207031 346.980469 118.859375 344.976562 117.796875 342.683594 Z M 117.796875 342.683594 "/>
<path style=" stroke:none;fill-rule:nonzero;fill:rgb(0%,0%,0%);fill-opacity:1;" d="M 109.09375 308.367188 C 109.867188 311.386719 109.898438 314.257812 109.1875 316.980469 C 108.480469 319.703125 107.109375 322.046875 105.074219 324.011719 C 103.03125 325.96875 100.519531 327.328125 97.53125 328.09375 C 94.554688 328.859375 91.710938 328.867188 89 328.117188 C 86.292969 327.367188 83.976562 325.96875 82.042969 323.917969 C 80.113281 321.871094 78.761719 319.335938 77.992188 316.3125 C 77.320312 313.675781 77.230469 311.1875 77.730469 308.855469 C 78.226562 306.515625 79.304688 304.496094 80.96875 302.792969 L 83.867188 305.335938 C 82.609375 306.738281 81.800781 308.308594 81.4375 310.042969 C 81.078125 311.78125 81.132812 313.5625 81.59375 315.386719 C 82.15625 317.59375 83.164062 319.457031 84.605469 320.96875 C 86.042969 322.484375 87.800781 323.5 89.875 324.023438 C 91.953125 324.539062 94.152344 324.5 96.46875 323.90625 C 98.832031 323.304688 100.789062 322.28125 102.34375 320.835938 C 103.894531 319.382812 104.9375 317.652344 105.46875 315.636719 C 106.007812 313.625 105.992188 311.511719 105.429688 309.304688 C 104.964844 307.476562 104.164062 305.886719 103.03125 304.53125 C 101.902344 303.171875 100.449219 302.179688 98.679688 301.554688 L 99.992188 297.9375 C 102.277344 298.625 104.199219 299.886719 105.761719 301.71875 C 107.320312 303.554688 108.429688 305.769531 109.09375 308.367188 Z M 109.09375 308.367188 "/>
<path style=" stroke:none;fill-rule:nonzero;fill:rgb(0%,0%,0%);fill-opacity:1;" d="M 88.714844 281.320312 L 96.015625 288.320312 L 104.996094 287.746094 L 105.265625 291.996094 L 60.839844 294.820312 L 60.566406 290.570312 L 90.683594 288.652344 L 72.296875 270.945312 L 71.964844 265.671875 L 85.703125 278.320312 L 103.390625 262.414062 L 103.714844 267.621094 Z M 88.714844 281.320312 "/>
<path style=" stroke:none;fill-rule:nonzero;fill:rgb(0%,0%,0%);fill-opacity:1;" d="M 64.179688 235.410156 L 68.40625 218.847656 C 69.507812 214.542969 71.339844 210.964844 73.90625 208.109375 C 76.46875 205.253906 79.527344 203.3125 83.074219 202.277344 C 86.617188 201.242188 90.367188 201.230469 94.324219 202.234375 C 98.277344 203.242188 101.558594 205.050781 104.167969 207.660156 C 106.785156 210.265625 108.535156 213.4375 109.417969 217.171875 C 110.304688 220.902344 110.203125 224.917969 109.105469 229.222656 L 104.875 245.785156 Z M 105.3125 228.515625 C 106.222656 224.949219 106.3125 221.644531 105.585938 218.609375 C 104.855469 215.574219 103.429688 213.003906 101.3125 210.890625 C 99.1875 208.773438 96.5 207.300781 93.242188 206.472656 C 89.984375 205.640625 86.917969 205.644531 84.042969 206.484375 C 81.167969 207.324219 78.683594 208.902344 76.585938 211.214844 C 74.488281 213.527344 72.984375 216.46875 72.074219 220.035156 L 69.011719 232.066406 L 102.25 240.546875 Z M 105.3125 228.515625 "/>
<path style=" stroke:none;fill-rule:nonzero;fill:rgb(0%,0%,0%);fill-opacity:1;" d="M 117.074219 172.664062 L 104.90625 196.089844 C 107.921875 197.398438 110.851562 197.503906 113.699219 196.414062 C 116.542969 195.316406 118.769531 193.222656 120.375 190.132812 C 121.277344 188.398438 121.792969 186.640625 121.925781 184.863281 C 122.058594 183.078125 121.796875 181.339844 121.144531 179.652344 L 124.707031 178.800781 C 125.546875 180.816406 125.878906 182.957031 125.699219 185.226562 C 125.515625 187.492188 124.84375 189.742188 123.675781 191.976562 C 122.183594 194.851562 120.246094 197.082031 117.863281 198.664062 C 115.488281 200.246094 112.902344 201.097656 110.09375 201.214844 C 107.28125 201.335938 104.507812 200.683594 101.769531 199.269531 C 99.042969 197.847656 96.902344 195.976562 95.355469 193.664062 C 93.808594 191.347656 92.96875 188.835938 92.84375 186.132812 C 92.714844 183.425781 93.316406 180.777344 94.65625 178.195312 C 96.011719 175.597656 97.828125 173.585938 100.105469 172.152344 C 102.382812 170.722656 104.902344 169.984375 107.65625 169.933594 C 110.40625 169.878906 113.167969 170.570312 115.9375 172.007812 Z M 97.90625 179.894531 C 96.511719 182.582031 96.199219 185.285156 96.96875 188.007812 C 97.734375 190.730469 99.441406 192.933594 102.09375 194.621094 L 112.40625 174.769531 C 109.503906 173.574219 106.71875 173.445312 104.050781 174.382812 C 101.378906 175.320312 99.332031 177.160156 97.90625 179.894531 Z M 97.90625 179.894531 "/>
<path style=" stroke:none;fill-rule:nonzero;fill:rgb(0%,0%,0%);fill-opacity:1;" d="M 124.425781 135.074219 L 140.652344 165.574219 L 137.964844 169.023438 L 104.488281 160.605469 L 107.214844 157.117188 L 135.683594 164.34375 L 121.839844 138.386719 Z M 124.425781 135.074219 "/>
<path style=" stroke:none;fill-rule:nonzero;fill:rgb(0%,0%,0%);fill-opacity:1;" d="M 162.105469 124.105469 L 142.324219 141.59375 C 144.664062 143.894531 147.355469 145.046875 150.40625 145.054688 C 153.460938 145.054688 156.292969 143.902344 158.894531 141.59375 C 160.359375 140.296875 161.472656 138.84375 162.238281 137.230469 C 163.011719 135.613281 163.390625 133.902344 163.386719 132.09375 L 167.019531 132.5625 C 167.074219 134.75 166.609375 136.875 165.625 138.929688 C 164.636719 140.976562 163.199219 142.839844 161.3125 144.511719 C 158.878906 146.65625 156.273438 148.042969 153.488281 148.667969 C 150.703125 149.289062 147.980469 149.148438 145.324219 148.25 C 142.65625 147.351562 140.300781 145.742188 138.261719 143.429688 C 136.21875 141.125 134.894531 138.613281 134.28125 135.898438 C 133.671875 133.175781 133.792969 130.53125 134.644531 127.96875 C 135.496094 125.402344 137.007812 123.148438 139.1875 121.210938 C 141.382812 119.28125 143.800781 118.054688 146.4375 117.53125 C 149.074219 117.011719 151.691406 117.21875 154.28125 118.15625 C 156.871094 119.09375 159.199219 120.734375 161.269531 123.074219 Z M 141.613281 123.949219 C 139.34375 125.964844 138.082031 128.382812 137.824219 131.199219 C 137.558594 134.011719 138.359375 136.6875 140.21875 139.21875 L 156.980469 124.398438 C 154.699219 122.238281 152.148438 121.113281 149.324219 121.023438 C 146.496094 120.933594 143.925781 121.90625 141.613281 123.949219 Z M 141.613281 123.949219 "/>
<path style=" stroke:none;fill-rule:nonzero;fill:rgb(0%,0%,0%);fill-opacity:1;" d="M 152.332031 94.976562 L 155.886719 92.621094 L 180.425781 129.769531 L 176.875 132.121094 Z M 152.332031 94.976562 "/>
<path style=" stroke:none;fill-rule:nonzero;fill:rgb(0%,0%,0%);fill-opacity:1;" d="M 199.59375 119.53125 C 196.835938 120.824219 194.058594 121.363281 191.261719 121.15625 C 188.46875 120.941406 185.917969 120.03125 183.613281 118.425781 C 181.316406 116.816406 179.511719 114.613281 178.199219 111.824219 C 176.886719 109.039062 176.34375 106.246094 176.574219 103.4375 C 176.796875 100.632812 177.722656 98.097656 179.355469 95.832031 C 180.980469 93.5625 183.167969 91.78125 185.925781 90.488281 C 188.667969 89.191406 191.433594 88.640625 194.21875 88.832031 C 197.011719 89.019531 199.546875 89.925781 201.832031 91.542969 C 204.125 93.160156 205.925781 95.363281 207.238281 98.144531 C 208.550781 100.9375 209.097656 103.734375 208.886719 106.53125 C 208.675781 109.324219 207.761719 111.863281 206.136719 114.15625 C 204.515625 116.441406 202.335938 118.234375 199.59375 119.53125 Z M 197.988281 116.113281 C 200.011719 115.15625 201.605469 113.839844 202.78125 112.15625 C 203.960938 110.476562 204.605469 108.574219 204.707031 106.449219 C 204.8125 104.316406 204.355469 102.164062 203.332031 99.988281 C 202.3125 97.824219 200.949219 96.105469 199.238281 94.832031 C 197.53125 93.558594 195.652344 92.832031 193.605469 92.667969 C 191.5625 92.5 189.53125 92.894531 187.511719 93.855469 C 185.472656 94.808594 183.867188 96.125 182.6875 97.8125 C 181.515625 99.496094 180.871094 101.402344 180.75 103.53125 C 180.632812 105.664062 181.082031 107.8125 182.105469 109.980469 C 183.125 112.152344 184.496094 113.875 186.21875 115.144531 C 187.941406 116.417969 189.824219 117.136719 191.863281 117.300781 C 193.910156 117.464844 195.953125 117.066406 197.988281 116.113281 Z M 197.988281 116.113281 "/>
<path style=" stroke:none;fill-rule:nonzero;fill:rgb(0%,0%,0%);fill-opacity:1;" d="M 226.734375 76.472656 C 229.609375 75.800781 232.371094 75.84375 235.015625 76.597656 C 237.660156 77.347656 239.925781 78.757812 241.808594 80.828125 C 243.6875 82.890625 244.988281 85.4375 245.703125 88.472656 C 246.425781 91.550781 246.402344 94.429688 245.628906 97.117188 C 244.863281 99.800781 243.476562 102.066406 241.464844 103.921875 C 239.457031 105.769531 236.996094 107.035156 234.078125 107.722656 C 231.582031 108.304688 229.214844 108.320312 226.964844 107.765625 C 224.714844 107.203125 222.714844 106.078125 220.964844 104.390625 L 224.972656 121.492188 L 220.828125 122.472656 L 210.964844 80.421875 L 214.941406 79.484375 L 216.359375 85.554688 C 217.128906 83.242188 218.40625 81.304688 220.191406 79.734375 C 221.984375 78.164062 224.164062 77.078125 226.734375 76.472656 Z M 232.910156 104.117188 C 235.058594 103.613281 236.886719 102.65625 238.402344 101.253906 C 239.921875 99.851562 240.964844 98.117188 241.527344 96.054688 C 242.089844 93.992188 242.09375 91.792969 241.546875 89.453125 C 240.996094 87.117188 240.015625 85.164062 238.597656 83.585938 C 237.183594 82.003906 235.476562 80.910156 233.484375 80.304688 C 231.496094 79.703125 229.433594 79.65625 227.285156 80.160156 C 225.113281 80.667969 223.277344 81.632812 221.777344 83.054688 C 220.277344 84.472656 219.238281 86.207031 218.671875 88.253906 C 218.109375 90.304688 218.101562 92.492188 218.652344 94.828125 C 219.199219 97.167969 220.183594 99.136719 221.597656 100.734375 C 223.019531 102.324219 224.71875 103.414062 226.691406 104.003906 C 228.664062 104.585938 230.738281 104.625 232.910156 104.117188 Z M 232.910156 104.117188 "/>
<path style=" stroke:none;fill-rule:nonzero;fill:rgb(0%,0%,0%);fill-opacity:1;" d="M 280.921875 88.671875 L 254.535156 89.328125 C 254.855469 92.597656 256.183594 95.21875 258.515625 97.183594 C 260.847656 99.148438 263.75 100.089844 267.222656 100.003906 C 269.183594 99.957031 270.972656 99.5625 272.597656 98.816406 C 274.222656 98.074219 275.621094 97.011719 276.785156 95.621094 L 279.246094 98.316406 C 277.882812 100.035156 276.164062 101.359375 274.089844 102.296875 C 272.019531 103.230469 269.722656 103.722656 267.203125 103.785156 C 263.964844 103.863281 261.082031 103.242188 258.546875 101.921875 C 256.011719 100.605469 254.011719 98.742188 252.546875 96.339844 C 251.089844 93.9375 250.320312 91.191406 250.246094 88.109375 C 250.167969 85.042969 250.769531 82.269531 252.046875 79.796875 C 253.332031 77.324219 255.125 75.378906 257.433594 73.964844 C 259.738281 72.542969 262.34375 71.792969 265.253906 71.722656 C 268.175781 71.648438 270.816406 72.261719 273.171875 73.566406 C 275.527344 74.875 277.390625 76.722656 278.765625 79.109375 C 280.144531 81.492188 280.875 84.238281 280.953125 87.347656 Z M 265.347656 75.390625 C 262.320312 75.460938 259.800781 76.492188 257.785156 78.484375 C 255.769531 80.472656 254.664062 83.03125 254.464844 86.160156 L 276.828125 85.609375 C 276.472656 82.492188 275.238281 79.992188 273.128906 78.109375 C 271.027344 76.222656 268.433594 75.316406 265.347656 75.390625 Z M 265.347656 75.390625 "/>
<path style=" stroke:none;fill-rule:nonzero;fill:rgb(0%,0%,0%);fill-opacity:1;" d="M 294.144531 79.597656 C 295.429688 77.617188 297.125 76.230469 299.226562 75.429688 C 301.332031 74.632812 303.835938 74.429688 306.738281 74.824219 L 306.175781 78.941406 L 305.164062 78.742188 C 301.878906 78.292969 299.164062 78.949219 297.019531 80.710938 C 294.878906 82.46875 293.5625 85.167969 293.0625 88.816406 L 290.875 104.753906 L 286.65625 104.179688 L 290.945312 72.910156 L 294.988281 73.460938 Z M 294.144531 79.597656 "/>
<path style=" stroke:none;fill-rule:nonzero;fill:rgb(0%,0%,0%);fill-opacity:1;" d="M 322.054688 112.121094 C 321.21875 111.84375 320.609375 111.300781 320.21875 110.496094 C 319.828125 109.691406 319.777344 108.855469 320.0625 107.988281 C 320.355469 107.113281 320.890625 106.476562 321.679688 106.082031 C 322.460938 105.683594 323.273438 105.628906 324.105469 105.902344 C 324.9375 106.175781 325.5625 106.707031 325.980469 107.496094 C 326.398438 108.289062 326.460938 109.121094 326.167969 109.996094 C 325.882812 110.863281 325.335938 111.503906 324.523438 111.914062 C 323.710938 112.324219 322.886719 112.394531 322.054688 112.121094 Z M 322.054688 112.121094 "/>
<path style=" stroke:none;fill-rule:nonzero;fill:rgb(0%,0%,0%);fill-opacity:1;" d="M 358.648438 129.472656 C 354.050781 126.570312 351.300781 122.988281 350.398438 118.722656 C 349.503906 114.460938 350.648438 109.8125 353.835938 104.777344 L 366.691406 84.441406 L 370.441406 86.808594 L 357.679688 106.984375 C 355.066406 111.109375 354.050781 114.773438 354.628906 117.972656 C 355.203125 121.183594 357.253906 123.894531 360.773438 126.121094 C 364.320312 128.371094 367.664062 129.066406 370.804688 128.214844 C 373.941406 127.359375 376.816406 124.871094 379.429688 120.746094 L 392.191406 100.566406 L 395.847656 102.878906 L 382.992188 123.214844 C 379.804688 128.246094 376.097656 131.277344 371.867188 132.296875 C 367.644531 133.324219 363.238281 132.382812 358.648438 129.472656 Z M 358.648438 129.472656 "/>
<path style=" stroke:none;fill-rule:nonzero;fill:rgb(0%,0%,0%);fill-opacity:1;" d="M 408.636719 114.292969 L 411.917969 117.28125 L 383.613281 148.3125 L 380.332031 145.324219 Z M 408.636719 114.292969 "/>
<path style=" stroke:none;fill-rule:nonzero;fill:rgb(0%,0%,0%);fill-opacity:1;" d="M 437.070312 131.363281 L 439.675781 134.269531 L 384.320312 157.164062 L 381.726562 154.257812 Z M 437.070312 131.363281 "/>
<path style=" stroke:none;fill-rule:nonzero;fill:rgb(0%,0%,0%);fill-opacity:1;" d="M 411.457031 183.125 C 408.621094 178.484375 407.742188 174.054688 408.820312 169.832031 C 409.894531 165.609375 412.980469 161.945312 418.070312 158.84375 L 438.601562 146.300781 L 440.914062 150.082031 L 420.539062 162.519531 C 416.371094 165.066406 413.835938 167.90625 412.933594 171.039062 C 412.03125 174.171875 412.667969 177.511719 414.839844 181.0625 C 417.027344 184.644531 419.71875 186.75 422.914062 187.375 C 426.105469 188 429.789062 187.035156 433.957031 184.488281 L 454.332031 172.050781 L 456.582031 175.75 L 436.050781 188.289062 C 430.957031 191.394531 426.292969 192.46875 422.058594 191.507812 C 417.824219 190.554688 414.289062 187.761719 411.457031 183.125 Z M 411.457031 183.125 "/>
<path style=" stroke:none;fill-rule:nonzero;fill:rgb(0%,0%,0%);fill-opacity:1;" d="M 432.066406 230.695312 L 445.417969 212.082031 L 423.667969 204.988281 L 422.074219 200.132812 L 447.566406 208.59375 L 462.324219 188.0625 L 463.910156 192.90625 L 451.523438 210.269531 L 471.753906 216.914062 L 473.242188 221.476562 L 449.347656 213.632812 L 433.667969 235.613281 Z M 432.066406 230.695312 "/>
<path style=" stroke:none;fill-rule:nonzero;fill:rgb(0%,0%,0%);fill-opacity:1;" d="M 478.1875 252.742188 L 478.082031 269.835938 C 478.054688 274.277344 477.136719 278.195312 475.332031 281.585938 C 473.53125 284.972656 471.039062 287.597656 467.851562 289.460938 C 464.664062 291.320312 461.03125 292.234375 456.945312 292.210938 C 452.863281 292.1875 449.238281 291.226562 446.070312 289.324219 C 442.90625 287.429688 440.4375 284.773438 438.675781 281.367188 C 436.917969 277.953125 436.054688 274.027344 436.082031 269.585938 L 436.1875 252.492188 Z M 439.925781 269.367188 C 439.90625 273.046875 440.613281 276.273438 442.050781 279.042969 C 443.492188 281.8125 445.5 283.964844 448.070312 285.5 C 450.640625 287.035156 453.605469 287.8125 456.96875 287.835938 C 460.328125 287.855469 463.304688 287.109375 465.894531 285.605469 C 468.484375 284.105469 470.515625 281.976562 471.988281 279.21875 C 473.46875 276.46875 474.21875 273.253906 474.238281 269.574219 L 474.3125 257.15625 L 440 256.949219 Z M 439.925781 269.367188 "/>
<path style=" stroke:none;fill-rule:nonzero;fill:rgb(0%,0%,0%);fill-opacity:1;" d="M 441.988281 326.394531 L 448.152344 300.726562 C 444.910156 300.191406 442.039062 300.792969 439.539062 302.539062 C 437.039062 304.289062 435.386719 306.855469 434.582031 310.238281 C 434.121094 312.144531 434.042969 313.980469 434.339844 315.738281 C 434.632812 317.5 435.304688 319.125 436.351562 320.613281 L 433.101562 322.289062 C 431.796875 320.539062 430.960938 318.539062 430.589844 316.289062 C 430.222656 314.042969 430.335938 311.699219 430.925781 309.246094 C 431.683594 306.09375 433.027344 303.460938 434.957031 301.351562 C 436.878906 299.246094 439.1875 297.800781 441.882812 297.007812 C 444.574219 296.214844 447.425781 296.179688 450.425781 296.902344 C 453.417969 297.617188 455.945312 298.910156 458.007812 300.777344 C 460.070312 302.652344 461.488281 304.886719 462.269531 307.476562 C 463.042969 310.066406 463.09375 312.78125 462.414062 315.621094 C 461.730469 318.460938 460.457031 320.851562 458.589844 322.789062 C 456.730469 324.730469 454.464844 326.0625 451.800781 326.777344 C 449.136719 327.492188 446.292969 327.488281 443.257812 326.769531 Z M 458.839844 314.769531 C 459.550781 311.816406 459.199219 309.113281 457.800781 306.652344 C 456.394531 304.195312 454.207031 302.464844 451.238281 301.464844 L 446.007812 323.226562 C 449.117188 323.683594 451.855469 323.136719 454.214844 321.589844 C 456.574219 320.042969 458.117188 317.769531 458.839844 314.769531 Z M 458.839844 314.769531 "/>
<path style=" stroke:none;fill-rule:nonzero;fill:rgb(0%,0%,0%);fill-opacity:1;" d="M 422.09375 335.335938 C 423.117188 332.996094 424.4375 330.902344 426.054688 329.054688 C 427.664062 327.207031 429.246094 325.902344 430.804688 325.136719 L 433.117188 328.230469 C 431.636719 329.023438 430.195312 330.203125 428.792969 331.773438 C 427.390625 333.339844 426.257812 335.121094 425.386719 337.105469 C 424.242188 339.746094 423.808594 341.878906 424.085938 343.503906 C 424.355469 345.128906 425.242188 346.265625 426.742188 346.917969 C 427.804688 347.382812 428.789062 347.398438 429.699219 346.960938 C 430.609375 346.527344 431.453125 345.847656 432.230469 344.917969 C 433.007812 343.996094 433.921875 342.714844 434.980469 341.085938 C 436.445312 338.933594 437.714844 337.238281 438.792969 336.003906 C 439.875 334.773438 441.1875 333.894531 442.730469 333.367188 C 444.273438 332.839844 446.015625 332.996094 447.960938 333.835938 C 450.375 334.890625 451.914062 336.765625 452.574219 339.460938 C 453.234375 342.152344 452.78125 345.296875 451.21875 348.886719 C 450.40625 350.753906 449.34375 352.515625 448.03125 354.167969 C 446.71875 355.820312 445.398438 357.078125 444.0625 357.941406 L 441.667969 354.855469 C 444.355469 353.195312 446.417969 350.714844 447.855469 347.417969 C 448.9375 344.925781 449.316406 342.851562 448.992188 341.199219 C 448.664062 339.554688 447.785156 338.417969 446.355469 337.792969 C 445.257812 337.316406 444.21875 337.289062 443.242188 337.722656 C 442.265625 338.152344 441.398438 338.828125 440.625 339.753906 C 439.855469 340.683594 438.890625 342.007812 437.742188 343.730469 C 436.296875 345.855469 435.046875 347.515625 434 348.710938 C 432.960938 349.910156 431.691406 350.777344 430.199219 351.304688 C 428.703125 351.832031 427.023438 351.691406 425.148438 350.878906 C 422.625 349.773438 421.082031 347.839844 420.511719 345.085938 C 419.9375 342.328125 420.464844 339.078125 422.09375 335.335938 Z M 422.09375 335.335938 "/>
<path style=" stroke:none;fill-rule:nonzero;fill:rgb(0%,0%,0%);fill-opacity:1;" d="M 441.371094 367.867188 L 439.203125 371.53125 L 412.015625 355.511719 L 414.183594 351.84375 Z M 446.214844 373.242188 C 446.65625 372.484375 447.289062 371.996094 448.109375 371.78125 C 448.9375 371.566406 449.710938 371.671875 450.433594 372.105469 C 451.121094 372.507812 451.570312 373.117188 451.777344 373.9375 C 451.992188 374.765625 451.875 375.554688 451.433594 376.3125 C 450.980469 377.078125 450.351562 377.570312 449.546875 377.792969 C 448.75 378.015625 448.007812 377.921875 447.320312 377.523438 C 446.5625 377.070312 446.074219 376.433594 445.859375 375.617188 C 445.644531 374.796875 445.761719 374.003906 446.214844 373.242188 Z M 446.214844 373.242188 "/>
<path style=" stroke:none;fill-rule:nonzero;fill:rgb(0%,0%,0%);fill-opacity:1;" d="M 413.761719 405.789062 L 392.3125 388.238281 C 388.160156 384.839844 385.914062 381.308594 385.574219 377.644531 C 385.234375 373.980469 386.738281 370.105469 390.082031 366.019531 C 391.933594 363.761719 394.019531 361.886719 396.34375 360.402344 C 398.664062 358.925781 400.933594 358.027344 403.15625 357.714844 L 404.28125 361.445312 C 402.277344 361.769531 400.289062 362.535156 398.324219 363.738281 C 396.351562 364.9375 394.605469 366.46875 393.082031 368.332031 C 390.550781 371.425781 389.40625 374.289062 389.65625 376.914062 C 389.90625 379.542969 391.550781 382.105469 394.582031 384.589844 L 397.699219 387.132812 C 396.984375 384.847656 396.902344 382.550781 397.449219 380.238281 C 397.996094 377.925781 399.09375 375.761719 400.738281 373.746094 C 402.613281 371.457031 404.824219 369.78125 407.363281 368.726562 C 409.90625 367.675781 412.515625 367.363281 415.199219 367.777344 C 417.886719 368.195312 420.371094 369.339844 422.65625 371.214844 C 424.949219 373.089844 426.554688 375.292969 427.480469 377.832031 C 428.402344 380.363281 428.597656 382.964844 428.074219 385.632812 C 427.542969 388.304688 426.328125 390.800781 424.425781 393.121094 C 422.730469 395.199219 420.78125 396.730469 418.574219 397.714844 C 416.371094 398.699219 414.058594 399.058594 411.636719 398.789062 L 416.332031 402.632812 Z M 403.40625 376.464844 C 401.964844 378.230469 401.035156 380.132812 400.625 382.175781 C 400.214844 384.214844 400.371094 386.1875 401.09375 388.089844 C 401.808594 390 403.03125 391.667969 404.761719 393.089844 C 406.496094 394.507812 408.363281 395.367188 410.355469 395.675781 C 412.339844 395.988281 414.285156 395.75 416.199219 394.964844 C 418.113281 394.179688 419.808594 392.886719 421.28125 391.089844 C 422.71875 389.324219 423.640625 387.433594 424.050781 385.414062 C 424.46875 383.398438 424.316406 381.441406 423.59375 379.539062 C 422.878906 377.636719 421.652344 375.976562 419.917969 374.558594 C 418.1875 373.136719 416.316406 372.261719 414.3125 371.933594 C 412.304688 371.605469 410.347656 371.839844 408.4375 372.632812 C 406.519531 373.425781 404.84375 374.699219 403.40625 376.464844 Z M 403.40625 376.464844 "/>
<path style=" stroke:none;fill-rule:nonzero;fill:rgb(0%,0%,0%);fill-opacity:1;" d="M 391.007812 425.941406 C 387.898438 428.386719 384.710938 429.425781 381.445312 429.058594 C 378.183594 428.695312 375.191406 426.785156 372.476562 423.328125 L 361.164062 408.941406 L 364.519531 406.316406 L 375.570312 420.371094 C 377.597656 422.953125 379.789062 424.410156 382.144531 424.746094 C 384.492188 425.082031 386.859375 424.3125 389.246094 422.433594 C 391.917969 420.328125 393.410156 417.871094 393.714844 415.058594 C 394.019531 412.246094 393.074219 409.441406 390.882812 406.652344 L 380.644531 393.628906 L 383.996094 390.996094 L 403.507812 415.808594 L 400.300781 418.339844 L 396.695312 413.753906 C 396.964844 415.984375 396.617188 418.152344 395.652344 420.253906 C 394.695312 422.359375 393.144531 424.253906 391.007812 425.941406 Z M 391.007812 425.941406 "/>
<path style=" stroke:none;fill-rule:nonzero;fill:rgb(0%,0%,0%);fill-opacity:1;" d="M 336.636719 437.816406 L 360.273438 426.089844 C 358.605469 423.253906 356.300781 421.4375 353.355469 420.640625 C 350.414062 419.847656 347.386719 420.226562 344.273438 421.777344 C 342.519531 422.644531 341.058594 423.753906 339.898438 425.109375 C 338.738281 426.46875 337.925781 428.027344 337.449219 429.785156 L 334.085938 428.371094 C 334.59375 426.25 335.589844 424.328125 337.074219 422.597656 C 338.5625 420.875 340.433594 419.457031 342.691406 418.339844 C 345.601562 416.894531 348.480469 416.234375 351.335938 416.359375 C 354.191406 416.488281 356.789062 417.332031 359.128906 418.890625 C 361.460938 420.453125 363.316406 422.613281 364.691406 425.378906 C 366.050781 428.136719 366.671875 430.902344 366.554688 433.683594 C 366.441406 436.464844 365.640625 438.988281 364.148438 441.246094 C 362.652344 443.507812 360.601562 445.289062 357.992188 446.589844 C 355.375 447.886719 352.726562 448.441406 350.042969 448.253906 C 347.363281 448.066406 344.894531 447.183594 342.636719 445.597656 C 340.375 444.015625 338.550781 441.828125 337.167969 439.035156 Z M 356.367188 443.296875 C 359.082031 441.949219 360.933594 439.949219 361.917969 437.296875 C 362.902344 434.644531 362.828125 431.855469 361.691406 428.933594 L 341.648438 438.878906 C 343.289062 441.558594 345.460938 443.308594 348.167969 444.121094 C 350.871094 444.9375 353.605469 444.664062 356.367188 443.296875 Z M 356.367188 443.296875 "/>
<path style=" stroke:none;fill-rule:nonzero;fill:rgb(0%,0%,0%);fill-opacity:1;" d="M 328.492188 451.648438 C 328.160156 453.96875 327.210938 455.933594 325.640625 457.546875 C 324.070312 459.164062 321.886719 460.40625 319.085938 461.273438 L 317.859375 457.316406 L 318.859375 457.078125 C 322.03125 456.097656 324.21875 454.351562 325.421875 451.847656 C 326.617188 449.347656 326.667969 446.335938 325.578125 442.816406 L 320.835938 427.453125 L 324.898438 426.191406 L 334.210938 456.347656 L 330.316406 457.554688 Z M 328.492188 451.648438 "/>
<path style=" stroke:none;fill-rule:nonzero;fill:rgb(0%,0%,0%);fill-opacity:1;" d="M 289.464844 433.9375 C 290.339844 433.832031 291.125 434.0625 291.820312 434.632812 C 292.507812 435.203125 292.90625 435.941406 293.015625 436.851562 C 293.121094 437.761719 292.902344 438.5625 292.359375 439.25 C 291.8125 439.9375 291.101562 440.332031 290.226562 440.4375 C 289.359375 440.539062 288.570312 440.320312 287.859375 439.78125 C 287.148438 439.238281 286.734375 438.511719 286.632812 437.601562 C 286.523438 436.691406 286.75 435.878906 287.320312 435.164062 C 287.882812 434.449219 288.597656 434.039062 289.464844 433.9375 Z M 289.464844 433.9375 "/>
</g>
</svg>
